<svg width="28" height="28" viewBox="0 0 28 28" fill="none" xmlns="http://www.w3.org/2000/svg">
<path d="M9.39531 21.8859C7.84219 20.0594 6.84688 17.3578 6.78125 14.3281V13.6719C6.84688 10.6422 7.85313 7.94063 9.39531 6.11406C11.4078 3.51094 14.3609 2.34063 17.6969 2.34063C19.7531 2.34063 21.6891 2.48281 23.3297 3.57656C20.8688 1.35625 17.6203 0.0109375 14.0547 0H14C6.26719 0 0 6.26719 0 14C0 21.5031 5.90625 27.6391 13.3328 27.9891C13.5516 28 13.7813 28 14 28C17.5875 28 20.8578 26.6547 23.3297 24.4344C21.6891 25.5281 19.8625 25.5719 17.8063 25.5719C14.4813 25.5828 11.3969 24.5 9.39531 21.8859Z" fill="url(#paint0_linear)"/>
<path d="M9.39551 6.11401C10.6752 4.5937 12.3377 3.68589 14.1533 3.68589C18.233 3.68589 21.5361 8.30151 21.5361 14.0109C21.5361 19.7203 18.233 24.3359 14.1533 24.3359C12.3377 24.3359 10.6861 23.4171 9.39551 21.9078C11.408 24.5109 14.3939 26.1734 17.7189 26.1734C19.7643 26.1734 21.6893 25.55 23.3299 24.4562C26.1955 21.875 28.0002 18.1453 28.0002 14C28.0002 9.85464 26.1955 6.12495 23.3299 3.56558C21.6893 2.47183 19.7752 1.84839 17.7189 1.84839C14.383 1.84839 11.3971 3.49995 9.39551 6.11401Z" fill="url(#paint1_linear)"/>
<defs>
<linearGradient id="paint0_linear" x1="11.6655" y1="0.4564" x2="11.6655" y2="27.5926" gradientUnits="userSpaceOnUse">
<stop offset="0.3" stop-color="#FF1B2D"/>
<stop offset="0.4381" stop-color="#FA1A2C"/>
<stop offset="0.5939" stop-color="#ED1528"/>
<stop offset="0.7581" stop-color="#D60E21"/>
<stop offset="0.9272" stop-color="#B70519"/>
<stop offset="1" stop-color="#A70014"/>
</linearGradient>
<linearGradient id="paint1_linear" x1="18.696" y1="2.05588" x2="18.696" y2="26.0564" gradientUnits="userSpaceOnUse">
<stop stop-color="#9C0000"/>
<stop offset="0.7" stop-color="#FF4B4B"/>
</linearGradient>
</defs>
</svg>
